<?xml version="1.0" encoding="UTF-8"?>
<svg id="Layer_1" xmlns="http://www.w3.org/2000/svg" version="1.1" viewBox="0 0 933.56 270.07">
  <!-- Generator: Adobe Illustrator 29.7.1, SVG Export Plug-In . SVG Version: 2.1.1 Build 8)  -->
  <defs>
    <style>
      .st0 {
        fill: #fff;
      }

      .st1 {
        fill: #deb94f;
      }
    </style>
  </defs>
  <path class="st0" d="M918.86,270.07c-2.42,0-4.48-.57-6.18-1.73-1.79-1.17-2.96-2.76-3.67-4.79l2.24-1.34c.54,1.65,1.43,2.94,2.69,3.87,1.34.93,2.96,1.4,5.02,1.4s3.5-.44,4.66-1.33c1.08-.87,1.61-2.03,1.61-3.49s-.45-2.46-1.52-3.16c-.99-.72-2.69-1.45-5.02-2.21-2.78-.91-4.57-1.66-5.47-2.21-2.06-1.23-3.05-2.99-3.05-5.31s.72-4.05,2.33-5.37c1.61-1.3,3.49-1.96,5.82-1.96,2.06,0,3.94.55,5.47,1.62,1.52,1.08,2.6,2.46,3.41,4.14l-2.33,1.26c-1.17-2.96-3.41-4.43-6.54-4.43-1.61,0-2.96.4-4.03,1.22-.99.82-1.52,1.95-1.52,3.4,0,1.33.54,2.31,1.43,2.98.9.65,2.42,1.33,4.48,2.02.99.33,1.7.56,2.15.71.36.14.99.37,1.79.68.81.32,1.43.6,1.79.84.36.24.81.57,1.34.99.54.43.99.84,1.25,1.26.18.42.45.93.63,1.53.18.59.27,1.24.27,1.92,0,2.27-.81,4.09-2.51,5.44-1.61,1.36-3.76,2.04-6.54,2.04M885.34,267.1h13v2.52h-15.68v-26.72h15.51v2.52h-12.82v9.46h11.83v2.52h-11.83v9.7ZM866.52,267.48c-1.79,1.73-4.21,2.59-7.17,2.59s-5.29-.86-7.17-2.59c-1.79-1.74-2.69-4.05-2.69-6.95v-17.64h2.6v17.64c0,2.13.72,3.83,1.97,5.07,1.25,1.25,3.05,1.87,5.29,1.87s4.12-.63,5.38-1.87c1.25-1.25,1.88-2.94,1.88-5.07v-17.64h2.69v17.64c0,2.89-.9,5.21-2.78,6.95ZM826.54,267.1h12.19v2.52h-14.88v-26.72h2.69v24.2ZM809.96,269.62l-2.42-6.57h-12.73l-2.42,6.57h-2.87l10.31-26.72h2.69l10.31,26.72h-2.87ZM795.8,260.54h10.75l-5.38-14.32-5.38,14.32ZM770.08,269.62l-9.86-26.72h2.87l8.33,23.17,8.34-23.17h2.96l-9.86,26.72h-2.78ZM729.3,242.9h2.69v26.72h-2.33l-14.88-21.75v21.75h-2.6v-26.72h2.24l14.88,21.76v-21.76ZM695.96,266.05c-2.69,2.68-6.01,4.02-9.86,4.02s-7.08-1.34-9.77-4.02c-2.69-2.69-4.03-5.94-4.03-9.79s1.34-7.11,4.03-9.79c2.69-2.69,5.92-4.03,9.77-4.03s7.17,1.34,9.86,4.03c2.69,2.68,3.94,5.94,3.94,9.79s-1.25,7.1-3.94,9.79ZM678.21,264.21c2.15,2.18,4.75,3.27,7.89,3.27s5.82-1.09,7.98-3.27c2.15-2.17,3.23-4.82,3.23-7.95s-1.08-5.79-3.23-7.96c-2.15-2.17-4.84-3.26-7.98-3.26s-5.74,1.09-7.89,3.26c-2.15,2.17-3.23,4.83-3.23,7.96s1.08,5.78,3.23,7.95ZM640.21,242.9h2.69v26.72h-2.24l-14.88-21.75v21.75h-2.69v-26.72h2.24l14.88,21.76v-21.76ZM606.87,266.05c-2.69,2.68-5.91,4.02-9.77,4.02s-7.17-1.34-9.86-4.02c-2.69-2.69-4.03-5.94-4.03-9.79s1.34-7.11,4.03-9.79c2.69-2.69,5.92-4.03,9.86-4.03s7.08,1.34,9.77,4.03c2.69,2.68,4.03,5.94,4.03,9.79s-1.34,7.1-4.03,9.79ZM589.12,264.21c2.15,2.18,4.75,3.27,7.98,3.27s5.74-1.09,7.89-3.27c2.15-2.17,3.23-4.82,3.23-7.95s-1.08-5.79-3.23-7.96c-2.15-2.17-4.75-3.26-7.89-3.26s-5.83,1.09-7.98,3.26c-2.15,2.17-3.23,4.83-3.23,7.96s1.08,5.78,3.23,7.95ZM568.33,269.62h2.69v-26.72h-2.69v26.72ZM556.94,242.9v2.52h-8.25v24.2h-2.69v-24.2h-8.16v-2.52h19.09ZM528.08,269.62l-2.42-6.57h-12.73l-2.42,6.57h-2.87l10.31-26.72h2.78l10.22,26.72h-2.87ZM513.92,260.54h10.76l-5.38-14.32-5.38,14.32ZM486.5,242.9c3.68,0,6.63,1.29,9.05,3.87,2.33,2.59,3.5,5.75,3.5,9.49s-1.17,6.9-3.5,9.48c-2.42,2.58-5.38,3.87-9.05,3.87h-10.31v-26.72h10.31ZM486.5,267.1c2.96,0,5.29-1.04,7.17-3.13,1.88-2.09,2.87-4.66,2.87-7.71s-.99-5.62-2.87-7.71c-1.88-2.09-4.21-3.14-7.17-3.14h-7.62v21.68h7.62ZM459.79,242.9h2.69v26.72h-2.33l-14.88-21.75v21.75h-2.69v-26.72h2.33l14.88,21.76v-21.76ZM426.54,267.48c-1.88,1.73-4.21,2.59-7.17,2.59s-5.38-.86-7.17-2.59c-1.88-1.74-2.78-4.05-2.78-6.95v-17.64h2.69v17.64c0,2.13.63,3.83,1.88,5.07,1.25,1.25,3.05,1.87,5.38,1.87s4.03-.63,5.29-1.87c1.25-1.25,1.97-2.94,1.97-5.07v-17.64h2.6v17.64c0,2.89-.9,5.21-2.69,6.95ZM393.73,266.05c-2.6,2.68-5.92,4.02-9.77,4.02s-7.17-1.34-9.86-4.02c-2.6-2.69-3.94-5.94-3.94-9.79s1.34-7.11,3.94-9.79c2.69-2.69,6.01-4.03,9.86-4.03s7.17,1.34,9.77,4.03c2.69,2.68,4.03,5.94,4.03,9.79s-1.34,7.1-4.03,9.79ZM375.99,264.21c2.15,2.18,4.84,3.27,7.98,3.27s5.83-1.09,7.89-3.27c2.15-2.17,3.23-4.82,3.23-7.95s-1.08-5.79-3.23-7.96c-2.06-2.17-4.75-3.26-7.89-3.26s-5.82,1.09-7.98,3.26c-2.15,2.17-3.14,4.83-3.14,7.96s.99,5.78,3.14,7.95ZM359.5,245.42h-12.46v9.85h11.83v2.52h-11.83v11.83h-2.69v-26.72h15.15v2.52ZM912.67,152.42h-52.88l15.6-33.58,13.8,29.59h21.6l-24.74-52.51-10.67-22.73-10.67,22.73-47.5,101.07h21.78l12.28-26.32h48.31l12.28,26.32h21.69l-20.88-44.56ZM406.1,73.13v9.44l77.8,114.56,23.75-.14-84.7-123.86h-16.85ZM748.84,149.46l-.54-.7c-4.39,1.6-9.14,2.3-16.4,2.3h-5.29l28.59,42.32c.09.11.18.2.18.29l2.33,3.45,3.59-.03c.18,0,.27.03.45.03h13.09c.45,0,.81-.04,1.25-.12l5.47-.04-7.53-10.39-25.18-37.12ZM773.21,110.33c0-28.69-23.84-37.2-43.92-37.2h-22.41v17.9h21.51c15.15,0,24.2,5.84,24.2,19.31,0,11.15-5.83,19.83-24.2,19.83h-21.51v17.89h22.41c20.61,0,43.92-9.03,43.92-37.72ZM682.51,184.79v12.19h21.33v-123.86h-21.33v111.67ZM633.13,125.57h-57v18.24h62.47v-18.23h-5.29c-.09,0-.09,0-.18,0ZM551.83,197.13h21.33v-124h-21.33v124ZM634.74,73.13h-58.62v18.42h62.47v-18.41h-3.85ZM406.1,197.13h21.33v-76.52l-21.33-31.59v108.11ZM507.47,73.14h-21.33v86.83l21.33,31v-117.83ZM358.33,73.13h-17.66v124h21.33v-123.99h-3.59s0,0-.09,0ZM305.45,141.66v-17.64h-45.89v21.34h44.55c.99,0,1.34-.7,1.34-3.7Z"/>
  <path class="st1" d="M42.48,225.08V0h-10.93v113.03h-5.02V21.7h-10.67v91.33h-5.2V45.79H0v223.83h222.1v-44.54H42.48ZM54.58,0v45.79h124.04v67.24h-88.01v45.79h131.48V0H54.58Z"/>
</svg>