<?xml version="1.0" encoding="UTF-8"?>
<svg id="Layer_1" xmlns="http://www.w3.org/2000/svg" version="1.1" viewBox="0 0 637.79 304.65">
  <!-- Generator: Adobe Illustrator 29.7.1, SVG Export Plug-In . SVG Version: 2.1.1 Build 8)  -->
  <defs>
    <style>
      .st0 {
        fill: #fff;
      }
    </style>
  </defs>
  <path class="st0" d="M623.45,280.11v-23.09h4.66l4.66,12.44c.18.39.36,1.01.63,1.84.18.82.45,1.79.81,2.91-.27-1.63-.45-3.13-.54-4.5-.09-1.36-.18-2.64-.18-3.82v-8.87h4.3v23.09h-4.3l-5.02-12.92c-.09-.19-.36-.98-.72-2.36-.18-.63-.27-1.13-.36-1.49.09.9.18,1.91.18,3.03.09,1.12.09,2.46.09,4.02v9.71h-4.21ZM618.25,268.91c0,3.51-.72,6.31-2.15,8.38-1.52,2.08-3.5,3.11-5.92,3.11-2.6,0-4.57-1.04-6-3.12s-2.15-4.98-2.15-8.69.72-6.61,2.15-8.7c1.52-2.11,3.5-3.16,6-3.16s4.48,1.08,5.92,3.23c1.43,2.15,2.15,5.14,2.15,8.95ZM610.18,276.01c1.17,0,2.06-.62,2.6-1.85.63-1.24.9-3.09.9-5.57s-.27-4.36-.9-5.6c-.54-1.24-1.43-1.85-2.6-1.85-1.25,0-2.06.61-2.69,1.84-.54,1.24-.81,3.1-.81,5.61s.27,4.36.81,5.58c.63,1.23,1.43,1.84,2.69,1.84h0ZM591.99,280.11v-23.09h4.66v23.09h-4.66ZM578.99,280.11v-18.81h-3.5v-4.28h11.65v4.28h-3.5v18.81h-4.66,0ZM571.02,257.02v14.5c0,1.77,0,3.04-.09,3.77-.18.74-.36,1.36-.54,1.85-.63,1.11-1.43,1.92-2.42,2.46-1.08.54-2.42.8-4.12.8s-3.05-.26-4.12-.8c-1.08-.54-1.88-1.34-2.42-2.46-.27-.49-.45-1.12-.54-1.86-.09-.75-.18-2-.18-3.76v-14.5h4.66v14.87c0,1.88.18,3.1.54,3.65.36.54,1.08.82,2.06.82s1.7-.28,2.06-.83.54-1.76.54-3.63v-14.87h4.57ZM542.78,280.11v-23.09h4.57v18.58h5.29v4.51h-9.86ZM537.67,268.91c0,3.51-.81,6.31-2.24,8.38-1.43,2.08-3.41,3.11-5.92,3.11s-4.57-1.04-5.91-3.12c-1.43-2.08-2.15-4.98-2.15-8.69s.72-6.61,2.15-8.7c1.43-2.11,3.41-3.16,5.91-3.16s4.48,1.08,6.01,3.23c1.43,2.15,2.15,5.14,2.15,8.95h0ZM529.52,276.01c1.17,0,2.06-.62,2.69-1.85.54-1.24.81-3.09.81-5.57s-.27-4.36-.81-5.6c-.63-1.24-1.52-1.85-2.69-1.85s-2.06.61-2.6,1.84c-.63,1.24-.9,3.1-.9,5.61s.27,4.36.9,5.58c.54,1.23,1.43,1.84,2.6,1.84h0ZM508.28,280.11l-6.54-23.09h4.66l2.69,10.46c.27,1.02.54,2.12.72,3.27.18,1.17.27,2.38.45,3.65,0-1.17.18-2.34.36-3.48.18-1.15.36-2.27.63-3.35l2.69-10.55h4.75l-6.54,23.09h-3.87ZM489.01,280.11v-23.09h9.68v4.28h-5.2v4.66h4.75v4.24h-4.75v5.4h5.2v4.51h-9.68ZM471.8,280.11v-23.09h4.84c2.6,0,4.48.52,5.74,1.55,1.17,1.04,1.79,2.69,1.79,4.96,0,1.64-.36,2.97-.99,3.96-.54.99-1.52,1.69-2.69,2.09l4.39,10.53h-4.84l-3.76-9.55v9.55h-4.48ZM476.28,267.04c.09,0,.18,0,.27.02s.18.02.27.02c.99,0,1.7-.28,2.24-.83.54-.56.81-1.38.81-2.47s-.27-1.91-.72-2.42c-.45-.5-1.25-.76-2.24-.76-.18,0-.27,0-.36.02-.09,0-.18,0-.27.02v6.42-.02ZM443.66,280.11v-23.09h9.77v4.28h-5.29v4.66h4.75v4.24h-4.75v5.4h5.29v4.51h-9.77ZM423.49,280.11v-23.09h4.57v8.54h5.11v-8.54h4.57v23.09h-4.57v-10.04h-5.11v10.04h-4.57ZM410.67,280.11v-18.81h-3.5v-4.28h11.65v4.28h-3.5v18.81h-4.66.01ZM375.27,280.11v-23.09h4.66l4.66,12.44c.18.39.36,1.01.63,1.84.18.82.45,1.79.81,2.91-.27-1.63-.45-3.13-.54-4.5-.09-1.36-.18-2.64-.18-3.82v-8.87h4.3v23.09h-4.3l-5.02-12.92c-.09-.19-.36-.98-.72-2.36-.18-.63-.27-1.13-.36-1.49.09.9.18,1.91.18,3.03.09,1.12.09,2.46.09,4.02v9.71h-4.21ZM364.42,280.11v-23.09h4.66v23.09h-4.66ZM359.05,268.91c0,3.51-.72,6.31-2.24,8.38-1.43,2.08-3.41,3.11-5.92,3.11s-4.48-1.04-5.92-3.12c-1.43-2.08-2.15-4.98-2.15-8.69s.72-6.61,2.15-8.7c1.43-2.11,3.41-3.16,5.92-3.16s4.57,1.08,6.01,3.23c1.43,2.15,2.15,5.14,2.15,8.95ZM350.89,276.01c1.17,0,2.06-.62,2.69-1.85.54-1.24.9-3.09.9-5.57s-.36-4.36-.9-5.6c-.63-1.24-1.52-1.85-2.69-1.85s-2.06.61-2.6,1.84c-.63,1.24-.9,3.1-.9,5.61s.27,4.36.9,5.58c.54,1.23,1.43,1.84,2.6,1.84h0ZM329.38,279.9v-4.19c.36.19.63.33.99.42.27.1.54.13.72.13.81,0,1.34-.28,1.61-.84s.45-2.03.45-4.36v-14.04h4.66v16.1c0,1.58-.09,2.72-.27,3.45-.18.72-.45,1.34-.9,1.87-.45.65-1.08,1.15-1.88,1.48-.72.34-1.61.51-2.6.51-.54,0-1.08-.04-1.52-.13-.45-.09-.9-.22-1.25-.4h-.01Z"/>
  <path class="st0" d="M263.86,31.01v182.43l-158.01,91.21v-60.19l105.85-61.12V61.11l52.16-30.1ZM158.01,92.12v60.2l-52.16,30.11.09-60.13,52.07-30.18h0ZM105.85,0v62.02l-52.07,30.1v60.2L0,183.34V61.11L105.85,0Z"/>
  <path class="st0" d="M329.38,88.52h49.83v134.76h-49.83V88.52ZM329.38,27.24h49.83v49.32h-49.83V27.24ZM406.1,88.52h48.76v10.04h.27c13-10.08,22.05-10.12,41.59-10.04,6.18.03,10.13.03,15.24,0v40.36c-5.83.19-11.29.21-21.87,0-15.24-.31-34.42,4.98-34.42,27.16v67.25h-49.56V88.52h0ZM595.66,175.45h0v-7.97h-12.82c-10.4,0-18.1,2.98-18.1,13.44,0,7.23,3.5,12.96,14.16,12.96,9.23,0,16.76-6.73,16.76-18.44h0ZM523.15,187.91c0-33.89,33.16-43.85,57.27-43.85h15.24v-9.46c0-9.22-5.47-15.2-16.31-15.2-11.74,0-15.77,7.22-15.77,13.7v3.24h-36.48v-5.23c0-28.65,25.9-43.34,55.12-43.34,27.61,0,54.67,13.2,54.67,47.32v58.54c-.09,13.16-.09,19.75,0,29.64h-39.17c-.18-2.55-.18-2.43,0-16.2-9.59,16.2-26.17,19.18-36.57,19.18-21.69,0-38-13.44-38-38.35h0Z"/>
</svg>